<svg width="1200" height="1200" viewBox="0 0 1200 1200" fill="none" xmlns="http://www.w3.org/2000/svg">
  <rect width="1200" height="1200" fill="#FFFAF2"/>
  <circle cx="600" cy="608" r="438" fill="#F5EADB"/>
  <circle cx="333" cy="290" r="118" fill="#E7C083" fill-opacity="0.28"/>
  <circle cx="885" cy="822" r="156" fill="#19372F" fill-opacity="0.08"/>
  <path d="M722 332H475C437 332 406 363 406 401V878C406 925 444 963 491 963H706C753 963 791 925 791 878V401C791 363 760 332 722 332Z" fill="#8A4B20"/>
  <path d="M722 332H475C437 332 406 363 406 401V878C406 925 444 963 491 963H706C753 963 791 925 791 878V401C791 363 760 332 722 332Z" fill="url(#glass)"/>
  <path d="M438 486H759V815H438V486Z" fill="#211713"/>
  <path d="M438 815H759V890H438V815Z" fill="url(#labelGold)"/>
  <path d="M493 239H704V340H493V239Z" fill="#16110F"/>
  <path d="M516 196C516 172 535 153 559 153H638C662 153 681 172 681 196V239H516V196Z" fill="#211713"/>
  <path d="M539 143H658C665 143 671 149 671 156V176H526V156C526 149 532 143 539 143Z" fill="#CF9A61"/>
  <path d="M485 413C485 386 507 364 534 364H663C690 364 712 386 712 413V486H485V413Z" fill="#A85E23" fill-opacity="0.58"/>
  <path d="M508 408C528 381 673 380 695 408" stroke="white" stroke-opacity="0.28" stroke-width="18" stroke-linecap="round"/>
  <path d="M477 910C510 943 690 948 722 910" stroke="#2F2119" stroke-opacity="0.3" stroke-width="14" stroke-linecap="round"/>
  <text x="598" y="574" text-anchor="middle" fill="#FFFAF2" font-family="Arial, sans-serif" font-size="62" font-weight="700">عود قصر دبي</text>
  <text x="598" y="645" text-anchor="middle" fill="#E7C083" font-family="Arial, sans-serif" font-size="70" font-weight="800">للبشرة</text>
  <text x="598" y="708" text-anchor="middle" fill="#F5EADB" font-family="Arial, sans-serif" font-size="38" font-weight="700">الجافة</text>
  <text x="598" y="861" text-anchor="middle" fill="#201711" font-family="Arial, sans-serif" font-size="42" font-weight="800">١٠٠ مل</text>
  <path d="M276 787C320 746 386 728 448 754C399 828 333 860 242 856C247 831 257 806 276 787Z" fill="#8B4A24"/>
  <path d="M815 779C875 733 958 724 1031 763C968 851 884 889 775 882C781 842 794 805 815 779Z" fill="#A35B2A"/>
  <path d="M260 852C319 819 400 800 475 802" stroke="#5F3018" stroke-width="18" stroke-linecap="round"/>
  <path d="M788 873C855 832 946 814 1029 821" stroke="#6C351A" stroke-width="18" stroke-linecap="round"/>
  <path d="M301 814C338 791 383 785 421 794" stroke="#CF9A61" stroke-width="10" stroke-linecap="round"/>
  <path d="M847 828C891 800 946 793 994 804" stroke="#E7C083" stroke-width="10" stroke-linecap="round"/>
  <defs>
    <linearGradient id="glass" x1="438" y1="375" x2="779" y2="911" gradientUnits="userSpaceOnUse">
      <stop stop-color="#F4A236" stop-opacity="0.54"/>
      <stop offset="0.33" stop-color="#5A2E18" stop-opacity="0.32"/>
      <stop offset="0.7" stop-color="#2A1911" stop-opacity="0.2"/>
      <stop offset="1" stop-color="#110D0B" stop-opacity="0.45"/>
    </linearGradient>
    <linearGradient id="labelGold" x1="438" y1="852" x2="759" y2="852" gradientUnits="userSpaceOnUse">
      <stop stop-color="#A86D3D"/>
      <stop offset="0.5" stop-color="#F2D19A"/>
      <stop offset="1" stop-color="#B77A45"/>
    </linearGradient>
  </defs>
</svg>
